<svg width="15" height="15" viewBox="0 0 15 15" fill="none" xmlns="http://www.w3.org/2000/svg">
<path d="M9.70012 4.41997C11.4012 4.41997 12.7801 3.92748 12.7801 3.31997C12.7801 2.71246 11.4012 2.21997 9.70012 2.21997C7.99908 2.21997 6.62012 2.71246 6.62012 3.31997C6.62012 3.92748 7.99908 4.41997 9.70012 4.41997Z" stroke="white" stroke-width="0.6" stroke-miterlimit="10" stroke-linecap="round" stroke-linejoin="round"/>
<path d="M6.62012 3.54004C6.62012 3.74068 6.62012 4.6594 6.62012 4.86004C6.62012 5.46746 7.99864 5.96004 9.70012 5.96004C11.4016 5.96004 12.7801 5.46746 12.7801 4.86004C12.7801 4.6594 12.7801 3.74068 12.7801 3.54004" stroke="white" stroke-width="0.6" stroke-miterlimit="10" stroke-linecap="round" stroke-linejoin="round"/>
<path d="M8.28101 7.37654C8.70561 7.4553 9.18829 7.49996 9.70001 7.49996C11.4015 7.49996 12.78 7.00738 12.78 6.39996C12.78 6.19932 12.78 5.2806 12.78 5.07996" stroke="white" stroke-width="0.6" stroke-miterlimit="10" stroke-linecap="round" stroke-linejoin="round"/>
<path d="M6.62012 5.07996C6.62012 5.2806 6.62012 6.01936 6.62012 6.01936" stroke="white" stroke-width="0.6" stroke-miterlimit="10" stroke-linecap="round" stroke-linejoin="round"/>
<path d="M8.3855 8.93505C8.78414 9.00237 9.22964 9.03999 9.7 9.03999C11.4015 9.03999 12.78 8.54763 12.78 7.93999C12.78 7.73935 12.78 6.82064 12.78 6.62" stroke="white" stroke-width="0.6" stroke-miterlimit="10" stroke-linecap="round" stroke-linejoin="round"/>
<path d="M8.36865 10.4722C8.77147 10.5413 9.22313 10.58 9.70009 10.58C11.4016 10.58 12.7801 10.0877 12.7801 9.48003C12.7801 9.27939 12.7801 8.36067 12.7801 8.16003" stroke="white" stroke-width="0.6" stroke-miterlimit="10" stroke-linecap="round" stroke-linejoin="round"/>
<path d="M5.29997 8.15996C7.00101 8.15996 8.37997 7.66747 8.37997 7.05996C8.37997 6.45245 7.00101 5.95996 5.29997 5.95996C3.59893 5.95996 2.21997 6.45245 2.21997 7.05996C2.21997 7.66747 3.59893 8.15996 5.29997 8.15996Z" stroke="white" stroke-width="0.6" stroke-miterlimit="10" stroke-linecap="round" stroke-linejoin="round"/>
<path d="M2.21997 7.28003C2.21997 7.48067 2.21997 8.39939 2.21997 8.60003C2.21997 9.20767 3.59849 9.70003 5.29997 9.70003C7.00145 9.70003 8.37997 9.20767 8.37997 8.60003C8.37997 8.39939 8.37997 7.48067 8.37997 7.28003" stroke="white" stroke-width="0.6" stroke-miterlimit="10" stroke-linecap="round" stroke-linejoin="round"/>
<path d="M2.21997 8.81995C2.21997 9.02059 2.21997 9.93931 2.21997 10.1399C2.21997 10.7476 3.59849 11.2399 5.29997 11.2399C7.00145 11.2399 8.37997 10.7476 8.37997 10.1399C8.37997 9.93931 8.37997 9.02059 8.37997 8.81995" stroke="white" stroke-width="0.6" stroke-miterlimit="10" stroke-linecap="round" stroke-linejoin="round"/>
<path d="M2.21997 10.36C2.21997 10.5606 2.21997 11.4793 2.21997 11.68C2.21997 12.2876 3.59849 12.78 5.29997 12.78C7.00145 12.78 8.37997 12.2876 8.37997 11.68C8.37997 11.4793 8.37997 10.5606 8.37997 10.36" stroke="white" stroke-width="0.6" stroke-miterlimit="10" stroke-linecap="round" stroke-linejoin="round"/>
</svg>
